# Blender v2.79 (sub 0) OBJ File: ''
# www.blender.org
mtllib skybox.mtl
o Cube
v 1.000000 -1.000000 -1.000000
v 1.000000 -1.000000 1.000000
v -1.000000 -1.000000 1.000000
v -1.000000 -1.000000 -1.000000
v 1.000000 1.000000 -0.999999
v 0.999999 1.000000 1.000001
v -1.000000 1.000000 1.000000
v -1.000000 1.000000 -1.000000
vt 0.499512 0.000651
vt 0.250488 0.333984
vt 0.499512 0.333984
vt 0.250488 0.666016
vt 0.499512 0.999349
vt 0.499512 0.666016
vt 0.000488 0.333984
vt 0.999512 0.333984
vt 0.749512 0.666016
vt 0.999512 0.666016
vt 0.250488 0.000651
vt 0.250488 0.999349
vt 0.000488 0.666016
vt 0.749512 0.333984
vn 0.0000 1.0000 0.0000
vn 0.0000 -1.0000 0.0000
vn -1.0000 0.0000 0.0000
vn 0.0000 0.0000 -1.0000
vn 1.0000 0.0000 0.0000
vn -0.0000 -0.0000 1.0000
usemtl Material.001
s off
f 4/1/1 2/2/1 1/3/1
f 6/4/2 8/5/2 5/6/2
f 2/2/3 5/6/3 1/3/3
f 3/7/4 6/4/4 2/2/4
f 3/8/5 8/9/5 7/10/5
f 8/9/6 1/3/6 5/6/6
f 4/1/1 3/11/1 2/2/1
f 6/4/2 7/12/2 8/5/2
f 2/2/3 6/4/3 5/6/3
f 3/7/4 7/13/4 6/4/4
f 3/8/5 4/14/5 8/9/5
f 8/9/6 4/14/6 1/3/6
